<?xml version="1.0" standalone="no"?><!DOCTYPE svg PUBLIC "-//W3C//DTD SVG 1.1//EN" "http://www.w3.org/Graphics/SVG/1.1/DTD/svg11.dtd"><svg t="1536752006247" class="icon" style="" viewBox="0 0 1024 1024" version="1.1" xmlns="http://www.w3.org/2000/svg" p-id="3654" xmlns:xlink="http://www.w3.org/1999/xlink" width="256" height="256"><defs><style type="text/css"></style></defs><path d="M800 96H224v96h576V96zM736 256H288v64h448v-64zM544 416H288v64h256v-64zM608 576H288v64h320v-64z" p-id="3655"></path><path d="M768 64H256a64.19 64.19 0 0 0-64 64v768a64.19 64.19 0 0 0 64 64h224v-64H256.11l-0.11-0.11V128.11l0.11-0.11h511.78l0.11 0.11v440.13l64-64V128a64.19 64.19 0 0 0-64-64z m0 831.89l-0.11 0.11h-56.13l-64 64H768a64.19 64.19 0 0 0 64-64V775.76l-64 64z" p-id="3656"></path><path d="M600.24 736H288v64h248.24l64-64zM869.49 512L512 869.49V960h90.51L960 602.51 869.49 512z" p-id="3657"></path></svg>