<?xml version="1.0" standalone="no"?><!DOCTYPE svg PUBLIC "-//W3C//DTD SVG 1.1//EN" "http://www.w3.org/Graphics/SVG/1.1/DTD/svg11.dtd"><svg t="1536744725489" class="icon" style="" viewBox="0 0 1024 1024" version="1.1" xmlns="http://www.w3.org/2000/svg" p-id="3490" xmlns:xlink="http://www.w3.org/1999/xlink" width="256" height="256"><defs><style type="text/css"></style></defs><path d="M512.5 622.71a82.29 82.29 0 1 0 58.18 24.1 81.75 81.75 0 0 0-58.18-24.1z" p-id="3491" fill="#ffffff"></path><path d="M512.5 66l-448 381.33V482h128v416a64.19 64.19 0 0 0 64 64h160v-1h192v1h160a64.19 64.19 0 0 0 64-64V482h128v-34.67z m192 655.19a13.71 13.71 0 0 1-11 13.45L651.65 743a13.77 13.77 0 0 0-10.23 8.84q-2.08 5.72-4.64 11.2a13.78 13.78 0 0 0 1 13.49L661.42 812a13.71 13.71 0 0 1-1.71 17.3l-22.89 22.89a13.71 13.71 0 0 1-17.3 1.71L584 830.26a13.78 13.78 0 0 0-13.49-1q-5.47 2.56-11.2 4.64a13.77 13.77 0 0 0-8.84 10.23L542.13 886a13.71 13.71 0 0 1-13.45 11h-32.37a13.71 13.71 0 0 1-13.45-11l-8.36-41.82a13.77 13.77 0 0 0-8.84-10.23q-5.72-2.08-11.2-4.64a13.78 13.78 0 0 0-13.49 1l-35.49 23.66a13.71 13.71 0 0 1-17.3-1.71l-22.89-22.89a13.71 13.71 0 0 1-1.71-17.3l23.66-35.49a13.78 13.78 0 0 0 1-13.49q-2.56-5.47-4.64-11.2a13.77 13.77 0 0 0-10.25-8.89l-41.82-8.36a13.71 13.71 0 0 1-11-13.45v-32.38a13.71 13.71 0 0 1 11-13.45l41.82-8.36a13.77 13.77 0 0 0 10.23-8.84q2.08-5.72 4.64-11.2a13.78 13.78 0 0 0-1-13.49L363.58 598a13.71 13.71 0 0 1 1.71-17.3l22.89-22.89a13.71 13.71 0 0 1 17.3-1.71L441 579.74a13.78 13.78 0 0 0 13.49 1q5.47-2.56 11.2-4.64a13.77 13.77 0 0 0 8.84-10.23l8.34-41.87a13.71 13.71 0 0 1 13.45-11h32.37a13.71 13.71 0 0 1 13.45 11l8.36 41.82a13.77 13.77 0 0 0 8.84 10.23q5.72 2.08 11.2 4.64a13.78 13.78 0 0 0 13.49-1l35.49-23.66a13.71 13.71 0 0 1 17.3 1.71l22.89 22.89a13.71 13.71 0 0 1 1.71 17.3l-23.66 35.49a13.78 13.78 0 0 0-1 13.49q2.56 5.47 4.64 11.2a13.77 13.77 0 0 0 10.25 8.89l41.82 8.36a13.71 13.71 0 0 1 11 13.45z" p-id="3492" fill="#ffffff"></path></svg>