<?xml version="1.0" standalone="no"?><!DOCTYPE svg PUBLIC "-//W3C//DTD SVG 1.1//EN" "http://www.w3.org/Graphics/SVG/1.1/DTD/svg11.dtd"><svg t="1523532995698" class="icon" style="" viewBox="0 0 1024 1024" version="1.1" xmlns="http://www.w3.org/2000/svg" p-id="735" xmlns:xlink="http://www.w3.org/1999/xlink" width="256" height="256"><defs><style type="text/css"></style></defs><path d="M64 960h64c0-53.31 8.54-104.92 25.37-153.38 16-46.19 38.88-87.5 67.86-122.78C278.36 614.3 353.21 576 432 576s153.64 38.3 210.76 107.84c29 35.29 51.82 76.6 67.86 122.78C727.46 855.08 736 906.69 736 960h64c0-187.77-94.89-348.56-229.48-415.17A255.94 255.94 0 0 0 704 320c0-141.38-114.62-256-256-256S192 178.62 192 320a255.8 255.8 0 0 0 119.48 216.58C167.43 597.34 64 764 64 960z m192-640a192 192 0 1 1 56.24 135.76A190.74 190.74 0 0 1 256 320z" p-id="736" fill="#ffffff"></path><path d="M749.92 579.2A223.92 223.92 0 0 0 864 384c0-106-73.69-194.87-172.65-218.08a286.4 286.4 0 0 1 36.05 84 161.5 161.5 0 0 1 25.74 20.93A160 160 0 0 1 640 544c-3.54 0-7.07-0.12-10.57-0.35l-0.51 0.42c35.79 25.17 68 57 95.58 94.08C755 654.76 783.32 678 808 707.18c27.36 32.33 48.9 70.17 64 112.46A415.3 415.3 0 0 1 896 960h64c0-170.07-86.36-316.3-210.08-380.8z" p-id="737" fill="#ffffff"></path></svg>