<?xml version="1.0" standalone="no"?><!DOCTYPE svg PUBLIC "-//W3C//DTD SVG 1.1//EN" "http://www.w3.org/Graphics/SVG/1.1/DTD/svg11.dtd"><svg t="1523533047575" class="icon" style="" viewBox="0 0 1024 1024" version="1.1" xmlns="http://www.w3.org/2000/svg" p-id="1066" xmlns:xlink="http://www.w3.org/1999/xlink" width="256" height="256"><defs><style type="text/css"></style></defs><path d="M416 896a255.73 255.73 0 0 1-256-256c0-56.35 14.79-118.37 44-184.35 24.37-55.18 58.7-112.93 102-171.65a1340.27 1340.27 0 0 1 110-130.16 1339.24 1339.24 0 0 1 108.57 128.25 1025.53 1025.53 0 0 1 72.07 110.85 320.3 320.3 0 0 1 67.92-8.85C570.25 202.83 416 64 416 64S96 352 96 640c0 176.73 143.27 320 320 320a321.87 321.87 0 0 0 57.34-5.13A321.88 321.88 0 0 1 416 896z" p-id="1067" fill="#ffffff"></path><path d="M672 448c-141.38 0-256 114.62-256 256s114.62 256 256 256 256-114.62 256-256-114.62-256-256-256zM512 864a160.07 160.07 0 0 1 110-152 91.43 91.43 0 1 1 100 0 160.07 160.07 0 0 1 110 152z" p-id="1068" fill="#ffffff"></path></svg>