<?xml version="1.0" standalone="no"?><!DOCTYPE svg PUBLIC "-//W3C//DTD SVG 1.1//EN" "http://www.w3.org/Graphics/SVG/1.1/DTD/svg11.dtd"><svg t="1536744234458" class="icon" style="" viewBox="0 0 1024 1024" version="1.1" xmlns="http://www.w3.org/2000/svg" p-id="3246" xmlns:xlink="http://www.w3.org/1999/xlink" width="256" height="256"><defs><style type="text/css"></style></defs><path d="M484.66 505.08l145.48 145.48a13.41 13.41 0 0 0 19 0l19-19a13.41 13.41 0 0 0 0-19L522.59 467.15a80.49 80.49 0 0 0-107.31-107.31l53.65 53.65L431 451.43l-53.65-53.65a80.49 80.49 0 0 0 107.31 107.3z" p-id="3247" fill="#ffffff"></path><path d="M896 192H128a64.19 64.19 0 0 0-64 64v512a64.19 64.19 0 0 0 64 64h192v64h384v-64h192a64.19 64.19 0 0 0 64-64V256a64.19 64.19 0 0 0-64-64z m0 576H128V256h768z" p-id="3248" fill="#ffffff"></path></svg>